HIERARCHY
ROOT Hips
{
  OFFSET 0.000000 0.000000 0.000000
  CHANNELS 6 Xposition Yposition Zposition Xrotation Yrotation Zrotation
  JOINT Spine
  {
    OFFSET 0.785918 22.667751 -11.192521
    CHANNELS 3 Xrotation Yrotation Zrotation
    JOINT Chest
    {
      OFFSET 0.785918 22.667751 -11.192521
      CHANNELS 3 Xrotation Yrotation Zrotation
      JOINT Neck
      {
        OFFSET 0.000000 4.280912 0.000000
        CHANNELS 3 Xrotation Yrotation Zrotation
        JOINT Head
        {
          OFFSET 0.000000 4.254871 0.000000
          CHANNELS 3 Xrotation Yrotation Zrotation
          End Site
          {
            OFFSET 0.000000 1.276461 0.000000
          }
        }
      }
      JOINT LeftCollar
      {
        OFFSET 3.000000 4.000000 0.000000
        CHANNELS 3 Xrotation Yrotation Zrotation
        JOINT LeftShoulder
        {
          OFFSET 16.621605 -2.780659 -2.297863
          CHANNELS 3 Xrotation Yrotation Zrotation
          JOINT LeftArm
          {
            OFFSET 7.570161 -18.010043 0.790673
            CHANNELS 3 Xrotation Yrotation Zrotation
            JOINT LeftForeArm
            {
              OFFSET 4.258502 -21.330331 -3.694189
              CHANNELS 3 Xrotation Yrotation Zrotation
              JOINT LeftHand
              {
                OFFSET -1.020528 -3.245478 -1.657259
                CHANNELS 3 Xrotation Yrotation Zrotation
                End Site
                {
                  OFFSET -0.306158 -0.973643 -0.497178
                }
              }
            }
          }
        }
      }
      JOINT RightCollar
      {
        OFFSET -3.000000 4.000000 0.000000
        CHANNELS 3 Xrotation Yrotation Zrotation
        JOINT RightShoulder
        {
          OFFSET -16.621605 2.780659 2.297863
          CHANNELS 3 Xrotation Yrotation Zrotation
          JOINT RightArm
          {
            OFFSET -7.047239 -26.880381 -0.525442
            CHANNELS 3 Xrotation Yrotation Zrotation
            JOINT RightForeArm
            {
              OFFSET -7.219958 -17.761464 -6.028907
              CHANNELS 3 Xrotation Yrotation Zrotation
              JOINT RightHand
              {
                OFFSET 1.362391 -2.129385 -3.788414
                CHANNELS 3 Xrotation Yrotation Zrotation
                End Site
                {
                  OFFSET 0.408717 -0.638815 -1.136524
                }
              }
            }
          }
        }
      }
    }
  }
  JOINT LeftUpLeg
  {
    OFFSET 10.014631 -0.404759 2.482655
    CHANNELS 3 Xrotation Yrotation Zrotation
    JOINT LeftLeg
    {
      OFFSET 2.113296 -38.097659 -0.269871
      CHANNELS 3 Xrotation Yrotation Zrotation
      JOINT LeftFoot
      {
        OFFSET -0.633741 -33.349279 19.614675
        CHANNELS 3 Xrotation Yrotation Zrotation
        End Site
        {
          OFFSET -0.190122 -10.004784 5.884402
        }
      }
    }
  }
  JOINT RightUpLeg
  {
    OFFSET -10.014631 0.404759 -2.482655
    CHANNELS 3 Xrotation Yrotation Zrotation
    JOINT RightLeg
    {
      OFFSET 1.865041 -30.879068 8.259322
      CHANNELS 3 Xrotation Yrotation Zrotation
      JOINT RightFoot
      {
        OFFSET -6.913018 -39.753150 16.368861
        CHANNELS 3 Xrotation Yrotation Zrotation
        End Site
        {
          OFFSET -2.073905 -11.925945 4.910658
        }
      }
    }
  }
}
MOTION
Frames: 14
Frame Time: 0.083333
0.111184 0.140942 0.094126 0.635841 -0.057091 -0.073260 0.000000 0.000000 0.000000 -25.926438 11.185813 -5.054789 -46.018994 -10.180383 -2.735190 0.000000 0.000000 0.000000 26.426941 -7.764438 9.497192 -3.240685 -1.425530 -0.050389 -1.514983 0.401038 0.421055 0.734938 2.093896 -0.122076 0.000000 0.000000 0.000000 26.426941 -7.764438 9.497192 -1.660592 0.371408 -0.267044 0.568948 0.085545 0.040344 0.463159 -0.842679 0.208451 0.000000 0.000000 0.000000 -0.679808 0.049966 0.540206 0.058121 -0.065371 -0.583862 0.000000 0.000000 0.000000 0.246227 0.249105 0.592612 0.962782 -2.403407 -5.325534 0.000000 0.000000 0.000000
0.110929 0.140847 0.094561 0.543528 -0.055530 -0.076657 0.000000 0.000000 0.000000 -25.926263 11.192197 -5.020354 -45.969319 -10.163846 -2.749980 0.000000 0.000000 0.000000 26.517317 -7.764443 9.497228 -2.744121 -1.221706 -0.079049 -1.211320 0.354313 0.370013 0.638907 1.725371 -0.088062 0.000000 0.000000 0.000000 26.517317 -7.764443 9.497228 -1.416223 0.300842 -0.251129 0.556527 0.057091 0.009238 0.352397 -0.666655 0.205445 0.000000 0.000000 0.000000 -0.584886 0.048720 0.506002 0.090500 -0.054062 -0.523820 0.000000 0.000000 0.000000 0.387557 0.263215 0.633974 0.785773 -2.498961 -5.598805 0.000000 0.000000 0.000000
0.110296 0.140926 0.095371 1.282982 -0.160900 -0.243150 0.000000 0.000000 0.000000 -25.924416 11.267165 -4.859565 -46.819424 -10.010828 -2.726204 0.000000 0.000000 0.000000 25.759317 -7.764460 9.497466 -6.334528 -2.887905 -0.316859 -2.495880 0.883190 0.894328 1.503434 3.789181 -0.108419 0.000000 0.000000 0.000000 25.759317 -7.764460 9.497466 -3.276782 0.624348 -0.721693 1.446422 0.142069 -0.094053 0.810507 -1.435922 0.698575 0.000000 0.000000 0.000000 -1.390887 0.142273 1.338532 0.523028 -0.123595 -1.291718 0.000000 0.000000 0.000000 1.084656 0.193085 -0.251474 -1.621518 -1.519246 -2.838231 0.000000 0.000000 0.000000
0.109633 0.141051 0.096433 1.339046 -0.262346 -0.451452 0.000000 0.000000 0.000000 -25.920286 11.433396 -4.490939 -47.094688 -9.755301 -2.649317 0.000000 0.000000 0.000000 25.668335 -7.764479 9.498051 -5.918875 -2.932885 -0.701934 -1.516631 1.013333 0.935909 1.445992 2.998261 0.265485 0.000000 0.000000 0.000000 25.668335 -7.764479 9.498051 -2.986291 0.321084 -1.189622 1.619893 0.277036 -0.448903 1.011805 -1.196302 1.559927 0.000000 0.000000 0.000000 -1.004245 0.262851 1.734680 1.231149 -0.130510 -1.400778 0.000000 0.000000 0.000000 2.283246 0.219805 -0.751917 -3.701532 -1.468809 -2.397524 0.000000 0.000000 0.000000
0.109276 0.140978 0.097793 1.555056 -0.385883 -0.698050 0.000000 0.000000 0.000000 -25.916100 11.634626 -4.199165 -47.108630 -9.507735 -2.276215 0.000000 0.000000 0.000000 25.412998 -7.764459 9.498814 -5.307900 -2.915601 -0.975162 -1.033785 1.030199 0.770000 1.224200 2.396921 0.843138 0.000000 0.000000 0.000000 25.412998 -7.764459 9.498814 -2.268262 -0.098265 -1.775262 1.145800 0.654278 -0.731810 1.765367 -1.439819 2.882395 0.000000 0.000000 0.000000 0.870697 0.501307 1.922150 0.797866 -0.196706 -1.279971 0.000000 0.000000 0.000000 2.536218 0.234799 -1.185437 -3.265206 -1.628217 -2.032676 0.000000 0.000000 0.000000
0.109346 0.140909 0.099501 2.025708 -0.512665 -0.939806 0.000000 0.000000 0.000000 -25.917901 11.675027 -3.952450 -47.219864 -9.210466 -1.819578 0.000000 0.000000 0.000000 24.901860 -7.764477 9.499357 -4.932774 -2.851110 -1.125676 -1.562455 0.899365 0.333866 1.286923 2.418852 1.329086 0.000000 0.000000 0.000000 24.901860 -7.764477 9.499357 -1.610148 -0.363792 -2.066247 1.533334 0.511421 -0.703761 1.257870 -1.533157 3.517934 0.000000 0.000000 0.000000 3.855587 0.827199 2.172984 -1.908117 -0.310291 -1.325641 0.000000 0.000000 0.000000 2.812172 0.277911 -1.661015 -2.995448 -1.610682 -1.124439 0.000000 0.000000 0.000000
0.109264 0.140733 0.101378 2.412670 -0.599895 -1.105768 0.000000 0.000000 0.000000 -25.927023 11.471567 -3.899248 -47.436851 -8.937813 -1.313698 0.000000 0.000000 0.000000 24.479113 -7.764493 9.498644 -4.851147 -2.629892 -0.932991 -1.910681 0.854429 -0.360221 1.293960 2.594298 1.662589 0.000000 0.000000 0.000000 24.479113 -7.764493 9.498644 -1.264505 -0.263361 -2.151507 1.930257 0.294635 -0.510972 0.088970 -1.819236 3.520072 0.000000 0.000000 0.000000 3.759021 0.949539 2.155339 -1.321979 -0.434606 -1.271520 0.000000 0.000000 0.000000 3.627630 0.340906 -2.198172 -2.499090 -1.864397 -0.611178 0.000000 0.000000 0.000000
0.108763 0.140703 0.102864 2.682749 -0.625650 -1.148304 0.000000 0.000000 0.000000 -25.934550 11.261464 -3.993002 -47.617900 -8.767676 -0.931886 0.000000 0.000000 0.000000 24.196835 -7.764495 9.497870 -5.388183 -2.678545 -1.001318 -2.215236 0.906323 -0.080740 1.576836 2.837714 1.792358 0.000000 0.000000 0.000000 24.196835 -7.764495 9.497870 -1.291274 -0.040686 -2.110287 2.223031 0.060103 -0.129549 -0.993382 -2.320673 3.197894 0.000000 0.000000 0.000000 4.390307 1.058936 1.805524 -1.413771 -0.667890 -1.159311 0.000000 0.000000 0.000000 4.331819 0.317773 -2.895416 -2.957645 -2.391746 -1.112179 0.000000 0.000000 0.000000
0.108191 0.141854 0.103515 2.947857 -0.656498 -1.202597 0.000000 0.000000 0.000000 -25.941211 11.085808 -4.041381 -47.857209 -8.639833 -0.676421 0.000000 0.000000 0.000000 23.918693 -7.764510 9.497466 -6.716507 -3.108532 -1.110773 -1.927428 1.239845 0.525564 1.978770 2.874851 2.270505 0.000000 0.000000 0.000000 23.918693 -7.764510 9.497466 -1.578297 0.197611 -1.719375 2.649542 -0.313658 0.223650 -1.434651 -2.933360 2.869117 0.000000 0.000000 0.000000 5.072549 1.184160 1.436752 -2.658056 -0.845442 -0.948135 0.000000 0.000000 0.000000 4.191624 0.236273 -3.457765 -3.844703 -2.936040 -2.250408 0.000000 0.000000 0.000000
0.107603 0.144467 0.105045 2.952333 -0.712270 -1.323005 0.000000 0.000000 0.000000 -25.941562 11.146618 -4.014597 -47.798476 -8.670156 -0.500216 0.000000 0.000000 0.000000 23.891872 -7.764444 9.497379 -6.974045 -3.254039 -0.915642 -2.086986 1.162064 1.488904 1.808195 2.404861 3.083887 0.000000 0.000000 0.000000 23.891872 -7.764444 9.497379 -1.588717 0.175200 -1.073440 2.849688 -0.503371 0.000863 -1.761479 -2.363543 2.331876 0.000000 0.000000 0.000000 5.026276 1.275282 1.221365 -4.942025 -0.800616 -0.519809 0.000000 0.000000 0.000000 4.088428 0.278672 -3.392807 -4.244162 -2.980961 -2.396646 0.000000 0.000000 0.000000
0.107303 0.147037 0.108133 2.865042 -0.782786 -1.478987 0.000000 0.000000 0.000000 -25.939435 11.321139 -3.841454 -47.785620 -8.711174 -0.517425 0.000000 0.000000 0.000000 23.951084 -7.764476 9.497545 -5.566717 -2.758811 -0.363758 -2.279369 0.502943 3.430884 1.486457 0.186969 4.536284 0.000000 0.000000 0.000000 23.951084 -7.764476 9.497545 -0.038302 -0.378753 -0.563980 3.577938 -0.233631 -2.463828 -2.580458 1.984567 2.974847 0.000000 0.000000 0.000000 5.476590 1.410402 1.072526 -8.784346 -0.799312 -0.213189 0.000000 0.000000 0.000000 3.872531 0.372194 -3.016129 -4.182756 -3.102306 -2.997519 0.000000 0.000000 0.000000
0.107325 0.148790 0.111153 2.782043 -0.906358 -1.749181 0.000000 0.000000 0.000000 -25.935390 11.646663 -3.587249 -47.882440 -8.956387 -0.750216 0.000000 0.000000 0.000000 23.986270 -7.764651 9.497656 -3.947787 -2.229463 1.203708 -3.139035 -0.724007 8.093906 -0.147795 -4.667908 9.436984 0.000000 0.000000 0.000000 23.986270 -7.764651 9.497656 2.749855 -1.358465 -0.503120 4.574252 1.364003 -8.320365 -3.714151 12.433077 6.522378 0.000000 0.000000 0.000000 3.790677 1.401563 1.354181 -8.558335 -0.646201 -0.154403 0.000000 0.000000 0.000000 3.518197 0.568129 -2.241123 -3.482781 -3.182232 -3.730837 0.000000 0.000000 0.000000
0.107331 0.150232 0.112597 2.791317 -0.985819 -1.920292 0.000000 0.000000 0.000000 -25.934720 11.810179 -3.601850 -48.431512 -9.308723 -1.076845 0.000000 0.000000 0.000000 23.944518 -7.765072 9.497022 -4.100559 -2.099265 4.946020 -3.792894 -1.649143 14.276260 -5.011798 -11.625114 18.931103 0.000000 0.000000 0.000000 23.944518 -7.765072 9.497022 3.355025 -1.518608 -1.249277 4.275508 5.468597 -17.640554 -2.309559 25.020709 17.289632 0.000000 0.000000 0.000000 -0.100136 1.145147 1.452012 -4.085327 -0.334070 0.167367 0.000000 0.000000 0.000000 4.114356 0.560652 -2.925580 -3.508523 -2.864928 -2.054995 0.000000 0.000000 0.000000
0.106279 0.152199 0.113215 2.765734 -1.016817 -1.987898 0.000000 0.000000 0.000000 -25.935474 11.849874 -3.726948 -49.271016 -9.423574 -1.231283 0.000000 0.000000 0.000000 23.956180 -7.765678 9.496327 -4.695462 -1.782404 11.248012 -5.583142 -2.009939 17.487052 -13.297374 -17.034431 31.089710 0.000000 0.000000 0.000000 23.956180 -7.765678 9.496327 3.583308 -1.385371 -3.347902 3.888465 9.112172 -24.748001 0.338403 33.890249 36.730868 0.000000 0.000000 0.000000 -2.683400 0.935727 1.309192 0.121543 -0.118409 0.545481 0.000000 0.000000 0.000000 4.392168 0.530245 -3.360050 -3.711498 -2.694165 -1.159892 0.000000 0.000000 0.000000
